# xmcd
#
# Track frame offsets:
#	182
#	14395
#	31867
#	48757
#	62967
#	78482
#	96477
#	107575
#	121330
#	138440
#	151885
#	168242
#
# Disc length: 2510 seconds
#
# Revision: 3
# Processed by: cddbd v1.5PL3 Copyright (c) Steve Scherf et al.
# Submitted via: EasyCDDAExtractor 6.5.0.1
#
DISCID=9309cc0c
DTITLE=Juan Carlos Cáceres - Solo
DYEAR=1993
DGENRE=Blues
TTITLE0=La Presencia
TTITLE1=Divagando
TTITLE2=Incertidumbre
TTITLE3=Silbando
TTITLE4=Yuyo Verde
TTITLE5=Vengo Aquí
TTITLE6=Antiguo Vacío
TTITLE7=Naranjo En Flor
TTITLE8=¿ Dónde Estás ?
TTITLE9=Desconforme
TTITLE10=Una Mañana Fria
TTITLE11=Solo
EXTD=
EXTT0=
EXTT1=
EXTT2=
EXTT3=
EXTT4=
EXTT5=
EXTT6=
EXTT7=
EXTT8=
EXTT9=
EXTT10=
EXTT11=
PLAYORDER=
